<svg xmlns="http://www.w3.org/2000/svg" viewBox="0 0 878.27 176.68"><defs><style>.cls-1{fill:#fff;}</style></defs><title>Golineplus</title><g id="Layer_2" data-name="Layer 2"><path class="cls-1" d="M301.25,124.06a15.9,15.9,0,0,1-15.88-15.88V5.08a5.08,5.08,0,1,0-10.16,0v103.1a26.07,26.07,0,0,0,26,26,5.08,5.08,0,0,0,0-10.16Z"/><path class="cls-1" d="M687,1.22a4,4,0,0,0-4.9,2.83l-27.62,103.1c-1.84,6.86-.73,13.62,3,18.54s9.42,7.45,16.15,7.45a4,4,0,1,0,0-8c-4.19,0-7.67-1.53-9.81-4.32-2.28-3-2.87-7.1-1.67-11.6L689.82,6.12A4,4,0,0,0,687,1.22Z"/><path class="cls-1" d="M322.42,39.17a5.08,5.08,0,0,0-5.08,5.08v84.89a5.08,5.08,0,1,0,10.16,0V44.25A5.07,5.07,0,0,0,322.42,39.17Z"/><path class="cls-1" d="M393.45,38.41a40.61,40.61,0,0,0-31,13.93V44.25a5.08,5.08,0,1,0-10.16,0v84.89a5.08,5.08,0,1,0,10.16,0V79.59A30.85,30.85,0,0,1,364,70c5.12-15.81,18.6-21.45,29.5-21.45S417.82,54.21,423,70a31,31,0,0,1,1.51,9.56v49.55a5.08,5.08,0,1,0,10.16,0V79.59a41.17,41.17,0,0,0-2-12.7A40.56,40.56,0,0,0,393.45,38.41Z"/><path class="cls-1" d="M770.11,132.25a4.13,4.13,0,0,0,1,.14,4,4,0,0,0,3.86-3l22.75-84.89A4,4,0,0,0,790,42.46L776.75,92a40.51,40.51,0,0,1-4.32,10.13c-11.12,18.78-31.36,25.44-44.75,22.17-5.81-1.42-15.68-6-16.49-20.36a31.42,31.42,0,0,1,1.1-9.87l13.28-49.55a4,4,0,0,0-7.73-2.07L704.56,92a39.32,39.32,0,0,0-1.35,12.39c.79,14.08,9.23,24.43,22.57,27.68a38,38,0,0,0,9,1c11.44,0,24.46-4.65,34.89-14.68l-2.39,8.91A4,4,0,0,0,770.11,132.25Z"/><path class="cls-1" d="M491.47,39.38c-23.29,0-42.24,21.27-42.24,47.42s18.95,47.42,42.24,47.42c11.6,0,23.69-1.51,33.58-12.47a5.08,5.08,0,1,0-7.54-6.81c-6.85,7.59-15.05,9.12-26,9.12-16.21,0-29.64-14-31.78-32.18h68.93a5.08,5.08,0,0,0,5.08-5.08C533.7,60.65,514.75,39.38,491.47,39.38ZM459.69,81.72c2.14-18.15,15.57-32.18,31.78-32.18s29.63,14,31.77,32.18Z"/><path class="cls-1" d="M185.35,2.19a66.23,66.23,0,1,0,66.22,66.23A66.3,66.3,0,0,0,185.35,2.19Zm0,117.21a51,51,0,1,1,51-51A51,51,0,0,1,185.35,119.4Z"/><path class="cls-1" d="M64.25,18.63A48.57,48.57,0,0,1,95.38,30a7.62,7.62,0,0,0,9.79-11.69A63.87,63.87,0,0,0,64.25,3.39C28.82,3.39,0,32.59,0,68.49s28.82,65.09,64.25,65.09a63.11,63.11,0,0,0,39.48-13.73,7.63,7.63,0,0,0,2.9-6V74.31A7.62,7.62,0,0,0,99,66.69H64.25a7.62,7.62,0,1,0,0,15.24H91.39V110a47.93,47.93,0,0,1-27.14,8.33c-27,0-49-22.36-49-49.85S37.23,18.63,64.25,18.63Z"/><circle class="cls-1" cx="322.42" cy="13.87" r="7.62"/><circle class="cls-1" cx="747.86" cy="165.34" r="10"/><circle class="cls-1" cx="777.71" cy="165.34" r="10"/><circle class="cls-1" cx="807.56" cy="165.34" r="10"/><circle class="cls-1" cx="837.41" cy="165.34" r="10"/><circle class="cls-1" cx="867.26" cy="165.34" r="10"/><path class="cls-1" d="M615.05,41.73c-12.54,0-25.55,6.85-35.57,17.49l3.73-13.94a4,4,0,1,0-7.72-2.07L541.07,171.64a4,4,0,0,0,2.83,4.9,3.77,3.77,0,0,0,1,.14,4,4,0,0,0,3.86-3l15.65-58.41a31.63,31.63,0,0,0,4.39,7.89c5.54,7.22,13.9,11.2,23.52,11.2,21.6,0,44.61-20.32,51.3-45.3,3.73-13.9,1.87-27.08-5.09-36.16C633,45.71,624.67,41.73,615.05,41.73ZM635.94,87c-5.82,21.71-25.37,39.37-43.58,39.37-7.18,0-13.12-2.79-17.17-8.07-5.44-7.09-6.79-17.74-3.72-29.23,5.82-21.7,25.37-39.36,43.58-39.36,7.18,0,13.12,2.79,17.17,8.07C637.66,64.89,639,75.54,635.94,87Z"/><path class="cls-1" d="M877.87,49.09a20.93,20.93,0,0,0-8.49-7.48c-4.83-2.55-11.12-3.83-18.7-3.83a55.59,55.59,0,0,0-13.48,1.64,44.65,44.65,0,0,0-12.36,5.13,38.6,38.6,0,0,0-10,8.82A34,34,0,0,0,808.55,66c-1,3.87-1.26,7.13-.67,9.68A10.72,10.72,0,0,0,812.12,82a29.64,29.64,0,0,0,8.46,4.11c3.42,1.12,7.54,2.29,12.28,3.46,4.58,1.17,8.67,2.32,12.14,3.42a33,33,0,0,1,8.3,3.75,10.58,10.58,0,0,1,4.16,4.87,11.08,11.08,0,0,1,0,6.83,22,22,0,0,1-10.83,13.83c-5.87,3.41-13,5.14-21.17,5.14A33.21,33.21,0,0,1,798.9,116a3,3,0,0,0-2.26-.9,2.82,2.82,0,0,0-.41,0,5.9,5.9,0,0,0-3.41,1.58l-.23.21c-1.9,1.74-2.46,4.27-1.29,5.76a31.19,31.19,0,0,0,12.36,9.45,48.81,48.81,0,0,0,19.3,3.62,59,59,0,0,0,15.16-1.92,45.13,45.13,0,0,0,13.06-5.69,39.78,39.78,0,0,0,9.88-9,33.12,33.12,0,0,0,5.83-11.82c1.15-4.27,1.23-7.86.26-10.67a13.93,13.93,0,0,0-5.54-7A39.71,39.71,0,0,0,851.48,85c-4-1.29-8.72-2.6-14-3.89-4.17-1.06-7.71-2-10.53-2.89a23.21,23.21,0,0,1-6.61-3,6.86,6.86,0,0,1-2.89-4.14,13.35,13.35,0,0,1,.45-6.35,22.15,22.15,0,0,1,4.11-8.3,25.39,25.39,0,0,1,6.72-5.8,29.84,29.84,0,0,1,8.66-3.42,46.5,46.5,0,0,1,10.12-1.09,37.84,37.84,0,0,1,14.68,2.72,16.81,16.81,0,0,1,7.79,6c1,1.51,3.31,1.68,5.38.4A6.36,6.36,0,0,0,878,52.16,3.54,3.54,0,0,0,877.87,49.09Z"/></g></svg>